<?xml version="1.0" encoding="UTF-8" standalone="no"?>
<svg width="18px" height="18px" viewBox="0 0 18 18" version="1.1" xmlns="http://www.w3.org/2000/svg" xmlns:xlink="http://www.w3.org/1999/xlink" xmlns:sketch="http://www.bohemiancoding.com/sketch/ns">
    <!-- Generator: Sketch 3.5.1 (25234) - http://www.bohemiancoding.com/sketch -->
    <title>icon-approved-18-green</title>
    <desc>Created with Sketch.</desc>
    <defs></defs>
    <g id="Misc" stroke="none" stroke-width="1" fill="none" fill-rule="evenodd" sketch:type="MSPage">
        <g id="Desktop-HD" sketch:type="MSArtboardGroup" transform="translate(-493.000000, -465.000000)" fill="#0ECF92">
            <g id="icon:-approved" sketch:type="MSLayerGroup" transform="translate(493.000000, 465.000000)">
                <path d="M7.74127044,11.6969224 C7.94622351,11.8771302 8.25781854,11.859703 8.44139861,11.657765 L12.36997,7.3363364 L12.7063064,6.96636636 L11.9663664,6.29369357 L11.63003,6.6636636 L8,10.6000061 L6.33015814,9.12460251 L5.95466432,8.79444437 L5.29434805,9.545432 L5.66984186,9.87559014 L7.74127044,11.6969224 Z" id="Shape" sketch:type="MSShapeGroup"></path>
                <path d="M9,17 L9,17 C13.418278,17 17,13.418278 17,9 C17,4.581722 13.418278,1 9,1 C4.581722,1 1,4.581722 1,9 C1,13.418278 4.581722,17 9,17 L9,17 Z M9,18 L9,18 C4.02943725,18 0,13.9705627 0,9 C0,4.02943725 4.02943725,0 9,0 C13.9705627,0 18,4.02943725 18,9 C18,13.9705627 13.9705627,18 9,18 L9,18 Z" id="Shape" sketch:type="MSShapeGroup"></path>
            </g>
        </g>
    </g>
</svg>